HIERARCHY
ROOT ui
{
	 OFFSET 0 0 0
	 CHANNELS 3 XPosition YPosition Z Position
	 EndSite
	 {
	 OFFSET 0 -1 0
	 }
}
ROOT li
{
	 OFFSET 0 0 0
	 CHANNELS 3 XPosition YPosition Z Position
	 EndSite
	 {
	 OFFSET 0 -1 0
	 }
}
ROOT ul
{
	 OFFSET 0 0 0
	 CHANNELS 3 XPosition YPosition Z Position
	 EndSite
	 {
	 OFFSET 0 -1 0
	 }
}
ROOT ll
{
	 OFFSET 0 0 0
	 CHANNELS 3 XPosition YPosition Z Position
	 EndSite
	 {
	 OFFSET 0 -1 0
	 }
}
ROOT tt
{
	 OFFSET 0 0 0
	 CHANNELS 3 XPosition YPosition Z Position
	 EndSite
	 {
	 OFFSET 0 -1 0
	 }
}
ROOT tb
{
	 OFFSET 0 0 0
	 CHANNELS 3 XPosition YPosition Z Position
	 EndSite
	 {
	 OFFSET 0 -1 0
	 }
}
ROOT td
{
	 OFFSET 0 0 0
	 CHANNELS 3 XPosition YPosition Z Position
	 EndSite
	 {
	 OFFSET 0 -1 0
	 }
}
ROOT v
{
	 OFFSET 0 0 0
	 CHANNELS 3 XPosition YPosition Z Position
	 EndSite
	 {
	 OFFSET 0 -1 0
	 }
}
ROOT bn
{
	 OFFSET 0 0 0
	 CHANNELS 3 XPosition YPosition Z Position
	 EndSite
	 {
	 OFFSET 0 -1 0
	 }
}
MOTION
Frames: 13
Frame Time: 0.002
-0.007855090141296386	3.5041099786758424E-4	0		0.24296833801269532	-2.855903076171875	0		-1.0452174072265625	-0.049694435119628906	0		-0.9869397583007813	-2.702635009765625	0		1.038712158203125	-1.2051163330078125	0		2.671949951171875	-0.5801233520507812	0		4.025653564453125	-0.20200193786621093	0		6.0652275390625	0.5240194091796875	0		0.019572566986083985	5.9361982421875	0		
0.06435641479492188	-0.005111583232879639	0		0.2506493835449219	-2.866884521484375	0		-1.0468896484375	-0.04975535202026367	0		-1.0269727783203124	-2.6988291015625	0		0.9713890991210937	-1.1992877197265626	0		2.607142333984375	-0.5900093994140625	0		4.012016357421875	-0.20072134399414063	0		6.05606201171875	0.508628173828125	0		-0.1025853271484375	5.9279755859375	0		
-0.0032389891147613526	-4.943479895591736E-4	0		0.19269009399414064	-2.85942626953125	0		-1.0326910400390625	-0.05614016342163086	0		-1.0111569213867186	-2.701232421875	0		0.9809494018554688	-1.1991611328125	0		2.6217099609375	-0.5836653442382812	0		4.00151171875	-0.19355274963378907	0		6.0670625	0.4997318420410156	0		0.029953083038330077	5.94518798828125	0		
0.06720136260986329	0.002132386922836304	0		0.24845330810546876	-2.8664375	0		-1.046091552734375	-0.04589799118041992	0		-1.0122808227539062	-2.701242431640625	0		0.9774803466796875	-1.2017547607421875	0		2.6023232421875	-0.5766094360351562	0		4.008787353515625	-0.1988175506591797	0		6.04234521484375	0.5015413208007813	0		0.02525535774230957	5.94741552734375	0		
-0.014391360282897949	0.0010400619506835938	0		0.1833759765625	-2.86684033203125	0		-1.047630126953125	-0.045893508911132815	0		-1.0194855346679688	-2.7071025390625	0		0.9679518432617188	-1.21022607421875	0		2.581539306640625	-0.5915623168945312	0		3.9952138671875	-0.200678955078125	0		6.02054541015625	0.49520480346679685	0		0.02169856643676758	5.948626953125	0		
0.07094034576416015	-0.01061354923248291	0		0.23821502685546875	-2.875805419921875	0		-1.0531431884765625	-0.04978360366821289	0		-1.0215319213867187	-2.709052001953125	0		0.9595193481445312	-1.2187296142578126	0		2.595087646484375	-0.5962755737304688	0		3.989704345703125	-0.2047635498046875	0		6.0155	0.47142691040039064	0		0.019312152862548827	5.94882177734375	0		
-0.017134294509887696	0.0014230159521102905	0		0.1784252471923828	-2.870332763671875	0		-1.0544420166015624	-0.049740951538085935	0		-1.0116353149414063	-2.718234375	0		0.9583908081054687	-1.2183936767578125	0		2.5997197265625	-0.6028262329101562	0		3.981260986328125	-0.21183697509765625	0		5.999107421875	0.4718155517578125	0		-0.11531578063964844	5.9288056640625	0		
0.05866571807861328	-9.8997300863266E-4	0		0.2143404541015625	-2.8848798828125	0		-1.0515145263671875	-0.04576388168334961	0		-1.089254638671875	-2.708557373046875	0		0.9412882080078125	-1.222730712890625	0		2.582849853515625	-0.5919501953125	0		3.983251953125	-0.20517567443847656	0		5.993716796875	0.4648923950195312	0		0.030420169830322266	5.95990673828125	0		
-0.01622432518005371	0.005761579990386963	0		0.17493009948730467	-2.87183984375	0		-1.0525194091796874	-0.04568278884887695	0		-1.0110860595703124	-2.71612353515625	0		0.9751238403320313	-1.237138916015625	0		2.57661962890625	-0.60533154296875	0		3.974309326171875	-0.20233216857910155	0		5.997462890625	0.45670587158203124	0		0.0144572811126709	5.94841015625	0		
0.056799430847167966	-5.604019761085511E-4	0		0.22815904235839843	-2.882726318359375	0		-1.0574527587890625	-0.049499576568603515	0		-1.0925548095703126	-2.71034326171875	0		0.9442392578125	-1.2442020263671876	0		2.586969970703125	-0.5980773315429687	0		3.957374267578125	-0.20636846923828125	0		5.98437451171875	0.4488016357421875	0		0.011992670059204102	5.94964306640625	0		
-0.020868654251098632	0.002247683048248291	0		0.20448167419433594	-2.894012451171875	0		-1.0632139892578125	-0.05227914047241211	0		-1.0192689208984376	-2.72375244140625	0		0.961502685546875	-1.2512672119140624	0		2.562140380859375	-0.6061223754882813	0		3.95972900390625	-0.20384394836425782	0		5.9762783203125	0.4327262878417969	0		0.010729884147644043	5.94985986328125	0		
0.05736805725097656	-0.0081537446975708	0		0.17418438720703125	-2.892159912109375	0		-1.0587108154296876	-0.04924943923950195	0		-1.0984671630859375	-2.715995361328125	0		0.93906884765625	-1.2495166015625	0		2.5557939453125	-0.5975703735351563	0		3.952021240234375	-0.21115328979492187	0		5.96833349609375	0.41658438110351564	0		0.010659103393554687	5.949060546875	0		
-0.02186126136779785	0.0026889660358428956	0		0.18581256103515625	-2.899167236328125	0		-1.0473450927734376	-0.05934344863891602	0		-1.0418199462890625	-2.722013916015625	0		0.9446026000976563	-1.255347412109375	0		2.588173583984375	-0.6088382568359375	0		3.95646142578125	-0.21775045776367188	0		5.95601953125	0.4244746398925781	0		-0.10545441436767578	5.9376416015625	0		
